#Comment line ignore any data following # character 
#Hierarchical Translation and Rotation (.htr) file 
[Header]	
#Header keywords are followed by a single value 
FileType HTR		#Single word string
DataType HTRS		#Translation followed by rotation and scale data
FileVersion 1		#integer
NumSegments 64		#integer
NumFrames 3		#integer
DataFrameRate 30		#integer, data frame rate in this file
EulerRotationOrder ZYX
CalibrationUnits mm
RotationUnits Degrees
GlobalAxisofGravity Y
BoneLengthAxis Y
ScaleFactor 1.00
[SegmentNames&Hierarchy]
#CHILD	PARENT
Pinger_Root GLOBAL
Pelvis Pinger_Root
L_Hip Pelvis
R_Hip Pelvis
Rear_Leg01 Pelvis
Spine1 Pelvis
L_Leg01 L_Hip
L_Leg02 L_Leg01
L_Leg03 L_Leg02
L_Foot L_Leg03
L_Toe1_01 L_Foot
L_Toe2_01 L_Foot
L_Toe3_01 L_Foot
planeAlignerLeft L_Foot
L_Toe1_02 L_Toe1_01
L_Toe1_03 L_Toe1_02
L_Toe2_02 L_Toe2_01
L_Toe2_03 L_Toe2_02
L_Toe3_02 L_Toe3_01
L_Toe3_03 L_Toe3_02
planeLockWeightLeft planeAlignerLeft
R_Leg01 R_Hip
R_Leg02 R_Leg01
R_Leg03 R_Leg02
R_Foot R_Leg03
planeAlignerRight R_Foot
R_Toe1_01 R_Foot
R_Toe2_01 R_Foot
R_Toe3_01 R_Foot
planeLockWeightRight planeAlignerRight
R_Toe1_02 R_Toe1_01
R_Toe1_03 R_Toe1_02
R_Toe2_02 R_Toe2_01
R_Toe2_03 R_Toe2_02
R_Toe3_02 R_Toe3_01
R_Toe3_03 R_Toe3_02
Rear_Leg02 Rear_Leg01
Rear_Leg03 Rear_Leg02
Rear_Leg04 Rear_Leg03
Rear_Foot Rear_Leg04
planeAlignerCenter Rear_Foot
Rear_Toe1_01 Rear_Foot
Rear_Toe2_01 Rear_Foot
Rear_Toe3_01 Rear_Foot
planeLockWeightCenter planeAlignerCenter
Rear_Toe1_02 Rear_Toe1_01
Rear_Toe1_03 Rear_Toe1_02
Rear_Toe2_02 Rear_Toe2_01
Rear_Toe2_03 Rear_Toe2_02
Rear_Toe3_02 Rear_Toe3_01
Rear_Toe3_03 Rear_Toe3_02
Back_Bone Spine1
Head Spine1
Motor_Bone Back_Bone
Ping_Mechanism Back_Bone
BN_LookIK Head
bottomMouth Head
L_Mouth01 Head
L_mouthFront Head
mouthGun Head
R_Mouth01 Head
R_mouthFront Head
TopMouth Head
weapon_bone Head
[BasePosition]
#SegmentName Tx, Ty, Tz, Rx, Ry, Rz, BoneLength
Pinger_Root 0.000000 0.000000 0.000000 -90.000000 0.000000 0.000000 10.000000 
Pelvis 0.000000 0.000000 0.000000 0.000000 0.000000 0.000000 10.000000 
L_Hip 0.000000 0.000000 0.000000 0.000000 0.000000 0.000000 10.000000 
R_Hip 0.000000 0.000000 0.000000 0.000000 0.000000 0.000000 10.000000 
Rear_Leg01 0.000000 0.000000 0.000000 0.000000 0.000000 0.000000 10.000000 
Spine1 0.000000 0.000000 0.000000 0.000000 0.000000 0.000000 10.000000 
L_Leg01 0.000000 0.000000 0.000000 0.000000 0.000000 0.000000 10.000000 
L_Leg02 0.000000 0.000000 0.000000 0.000000 0.000000 0.000000 10.000000 
L_Leg03 0.000000 0.000000 0.000000 0.000000 0.000000 0.000000 10.000000 
L_Foot 0.000000 0.000000 0.000000 0.000000 0.000000 0.000000 10.000000 
L_Toe1_01 0.000000 0.000000 0.000000 0.000000 0.000000 0.000000 10.000000 
L_Toe2_01 0.000000 0.000000 0.000000 0.000000 0.000000 0.000000 10.000000 
L_Toe3_01 0.000000 0.000000 0.000000 0.000000 0.000000 0.000000 10.000000 
planeAlignerLeft 0.000000 0.000000 0.000000 0.000000 0.000000 0.000000 10.000000 
L_Toe1_02 0.000000 0.000000 0.000000 0.000000 0.000000 0.000000 10.000000 
L_Toe1_03 0.000000 0.000000 0.000000 0.000000 0.000000 0.000000 10.000000 
L_Toe2_02 0.000000 0.000000 0.000000 0.000000 0.000000 0.000000 10.000000 
L_Toe2_03 0.000000 0.000000 0.000000 0.000000 0.000000 0.000000 10.000000 
L_Toe3_02 0.000000 0.000000 0.000000 0.000000 0.000000 0.000000 10.000000 
L_Toe3_03 0.000000 0.000000 0.000000 0.000000 0.000000 0.000000 10.000000 
planeLockWeightLeft 0.000000 0.000000 0.000000 0.000000 0.000000 0.000000 10.000000 
R_Leg01 0.000000 0.000000 0.000000 0.000000 0.000000 0.000000 10.000000 
R_Leg02 0.000000 0.000000 0.000000 0.000000 0.000000 0.000000 10.000000 
R_Leg03 0.000000 0.000000 0.000000 0.000000 0.000000 0.000000 10.000000 
R_Foot 0.000000 0.000000 0.000000 0.000000 0.000000 0.000000 10.000000 
planeAlignerRight 0.000000 0.000000 0.000000 0.000000 0.000000 0.000000 10.000000 
R_Toe1_01 0.000000 0.000000 0.000000 0.000000 0.000000 0.000000 10.000000 
R_Toe2_01 0.000000 0.000000 0.000000 0.000000 0.000000 0.000000 10.000000 
R_Toe3_01 0.000000 0.000000 0.000000 0.000000 0.000000 0.000000 10.000000 
planeLockWeightRight 0.000000 0.000000 0.000000 0.000000 0.000000 0.000000 10.000000 
R_Toe1_02 0.000000 0.000000 0.000000 0.000000 0.000000 0.000000 10.000000 
R_Toe1_03 0.000000 0.000000 0.000000 0.000000 0.000000 0.000000 10.000000 
R_Toe2_02 0.000000 0.000000 0.000000 0.000000 0.000000 0.000000 10.000000 
R_Toe2_03 0.000000 0.000000 0.000000 0.000000 0.000000 0.000000 10.000000 
R_Toe3_02 0.000000 0.000000 0.000000 0.000000 0.000000 0.000000 10.000000 
R_Toe3_03 0.000000 0.000000 0.000000 0.000000 0.000000 0.000000 10.000000 
Rear_Leg02 0.000000 0.000000 0.000000 0.000000 0.000000 0.000000 10.000000 
Rear_Leg03 0.000000 0.000000 0.000000 0.000000 0.000000 0.000000 10.000000 
Rear_Leg04 0.000000 0.000000 0.000000 0.000000 0.000000 0.000000 10.000000 
Rear_Foot 0.000000 0.000000 0.000000 0.000000 0.000000 0.000000 10.000000 
planeAlignerCenter 0.000000 0.000000 0.000000 0.000000 0.000000 0.000000 10.000000 
Rear_Toe1_01 0.000000 0.000000 0.000000 0.000000 0.000000 0.000000 10.000000 
Rear_Toe2_01 0.000000 0.000000 0.000000 0.000000 0.000000 0.000000 10.000000 
Rear_Toe3_01 0.000000 0.000000 0.000000 0.000000 0.000000 0.000000 10.000000 
planeLockWeightCenter 0.000000 0.000000 0.000000 0.000000 0.000000 0.000000 10.000000 
Rear_Toe1_02 0.000000 0.000000 0.000000 0.000000 0.000000 0.000000 10.000000 
Rear_Toe1_03 0.000000 0.000000 0.000000 0.000000 0.000000 0.000000 10.000000 
Rear_Toe2_02 0.000000 0.000000 0.000000 0.000000 0.000000 0.000000 10.000000 
Rear_Toe2_03 0.000000 0.000000 0.000000 0.000000 0.000000 0.000000 10.000000 
Rear_Toe3_02 0.000000 0.000000 0.000000 0.000000 0.000000 0.000000 10.000000 
Rear_Toe3_03 0.000000 0.000000 0.000000 0.000000 0.000000 0.000000 10.000000 
Back_Bone 0.000000 0.000000 0.000000 0.000000 0.000000 0.000000 10.000000 
Head 0.000000 0.000000 0.000000 0.000000 0.000000 0.000000 10.000000 
Motor_Bone 0.000000 0.000000 0.000000 0.000000 0.000000 0.000000 10.000000 
Ping_Mechanism 0.000000 0.000000 0.000000 0.000000 0.000000 0.000000 10.000000 
BN_LookIK 0.000000 0.000000 0.000000 0.000000 0.000000 0.000000 10.000000 
bottomMouth 0.000000 0.000000 0.000000 0.000000 0.000000 0.000000 10.000000 
L_Mouth01 0.000000 0.000000 0.000000 0.000000 0.000000 0.000000 10.000000 
L_mouthFront 0.000000 0.000000 0.000000 0.000000 0.000000 0.000000 10.000000 
mouthGun 0.000000 0.000000 0.000000 0.000000 0.000000 0.000000 10.000000 
R_Mouth01 0.000000 0.000000 0.000000 0.000000 0.000000 0.000000 10.000000 
R_mouthFront 0.000000 0.000000 0.000000 0.000000 0.000000 0.000000 10.000000 
TopMouth 0.000000 0.000000 0.000000 0.000000 0.000000 0.000000 10.000000 
weapon_bone 0.000000 0.000000 0.000000 0.000000 0.000000 0.000000 10.000000 
#Beginning of Data. Separated by tabs
#Fr	Tx	Ty	Tz	Rx	Ry	Rz	SF
[Pinger_Root]
76 -2499.999756 -0.000690 0.000000 -0.000075 -0.000000 -0.000020 2499.999756
77 -2499.999756 -0.000690 0.000000 -0.000075 -0.000000 -0.000020 2499.999756
78 -2499.999756 -0.000690 0.000000 -0.000075 -0.000000 -0.000020 2499.999756
[Pelvis]
76 52.026413 928.971985 4430.138672 -91.692917 -84.368103 84.896156 4526.789551
77 59.371136 924.384460 4432.579590 -94.866379 -85.052086 87.739655 4528.330078
78 64.116020 921.459534 4432.743164 -96.395981 -85.346802 89.115685 4527.958496
[L_Hip]
76 5.766392 125.831482 872.656799 160.007889 -46.984470 121.629021 881.701050
77 5.766392 125.831482 872.656799 160.064026 -46.372070 121.906395 881.701050
78 5.766392 125.831482 872.656799 160.094086 -46.094398 122.032654 881.701050
[R_Hip]
76 5.765438 125.836372 -872.654907 37.998520 51.248032 125.452080 881.699829
77 5.765438 125.836372 -872.654907 38.032497 50.766716 125.538467 881.699829
78 5.765438 125.836372 -872.654907 38.065006 50.285389 125.623535 881.699829
[Rear_Leg01]
76 -192.298416 -925.602966 -0.001907 170.784378 2.571451 -159.313126 945.367432
77 -192.298416 -925.602966 -0.001907 170.402466 2.367867 -159.350159 945.367432
78 -192.298416 -925.602966 -0.001907 170.020752 2.164044 -159.385818 945.367432
[Spine1]
76 290.604584 5.007505 0.000477 6.679485 -1.020605 17.551760 290.647736
77 290.604584 5.007505 0.000477 6.889377 -0.869502 18.154287 290.647736
78 290.604584 5.007505 0.000477 7.100829 -0.720620 18.757315 290.647736
[L_Leg01]
76 761.932007 -0.002384 -0.069261 22.170605 -18.131138 -10.316600 761.932068
77 761.932007 -0.002384 -0.069261 22.399797 -17.328747 -9.960476 761.932068
78 761.932007 -0.002384 -0.069261 22.633194 -16.527744 -9.602520 761.932068
[L_Leg02]
76 1441.140503 -0.000954 -0.000715 2.548898 -0.168145 -127.686028 1441.140503
77 1441.140503 -0.000954 -0.000715 2.561432 -0.172483 -128.002808 1441.140503
78 1441.140503 -0.000954 -0.000715 2.573990 -0.176752 -128.319611 1441.140503
[L_Leg03]
76 1686.963989 -0.000715 -0.000954 -0.029877 0.014855 118.660362 1686.963989
77 1686.963989 -0.000715 -0.000954 -0.029891 0.014828 118.556076 1686.963989
78 1686.963989 -0.000715 -0.000954 -0.029904 0.014801 118.451805 1686.963989
[L_Foot]
76 3041.570068 -30.715107 11.297464 2.256932 12.764834 54.591045 3041.746094
77 3041.570068 -30.715107 11.297464 2.122138 12.899341 54.965820 3041.746094
78 3041.570068 -30.715107 11.297464 2.079012 12.945230 55.093224 3041.746094
[L_Toe1_01]
76 -188.216690 -224.732346 -21.137953 93.569626 -6.680436 -172.179428 293.899567
77 -188.216690 -224.732346 -21.137953 93.599571 -6.716806 -172.137604 293.899567
78 -188.216690 -224.732346 -21.137953 93.629478 -6.753198 -172.095779 293.899567
[L_Toe2_01]
76 200.746536 -219.926590 148.838394 -89.767868 -25.872925 -51.634491 332.896027
77 200.746536 -219.926590 148.838394 -89.883095 -26.053408 -52.036686 332.896027
78 200.746536 -219.926590 148.838394 -89.918594 -26.117851 -52.196861 332.896027
[L_Toe3_01]
76 188.832520 -219.859131 -191.078659 -100.097137 14.535886 -66.144897 347.140900
77 188.832520 -219.859131 -191.078659 -99.976990 14.266387 -66.724266 347.140900
78 188.832520 -219.859131 -191.078659 -99.919586 14.133338 -67.019104 347.140900
[planeAlignerLeft]
76 37.375881 -584.343750 96.017410 169.287857 -76.897934 90.445854 593.358154
77 36.330231 -586.413208 97.230225 169.293488 -76.753250 90.329727 595.528381
78 35.284622 -588.482605 98.442978 169.297806 -76.608521 90.214874 597.702087
[L_Toe1_02]
76 413.761139 0.000477 0.000000 0.001384 -25.983080 0.001384 413.761139
77 413.761139 0.000477 0.000000 0.001384 -25.989046 0.001384 413.761139
78 413.761139 0.000477 0.000000 0.001384 -25.995022 0.001384 413.761139
[L_Toe1_03]
76 464.317322 0.000358 -0.000089 0.003840 54.405621 0.003840 464.317322
77 464.317322 0.000358 -0.000089 0.003809 54.110321 0.003809 464.317322
78 464.317322 0.000358 -0.000089 0.003779 53.815006 0.003779 464.317322
[L_Toe2_02]
76 342.235809 -0.000477 0.000238 0.001187 -72.815567 0.001187 342.235809
77 342.235809 -0.000477 0.000238 0.001187 -72.663986 0.001187 342.235809
78 342.235809 -0.000477 0.000238 0.001187 -72.512360 0.001187 342.235809
[L_Toe2_03]
76 420.210846 -0.000715 0.000000 0.002850 86.337883 0.004949 420.210846
77 420.210846 -0.000715 0.000000 0.013112 86.064377 0.014511 420.210846
78 420.210846 -0.000715 0.000000 0.022085 85.790756 0.022785 420.210846
[L_Toe3_02]
76 329.270111 0.000954 0.000000 0.001177 -80.976372 0.001177 329.270111
77 329.270111 0.000954 0.000000 0.001177 -80.855659 0.001177 329.270111
78 329.270111 0.000954 0.000000 0.001177 -80.734886 0.001177 329.270111
[L_Toe3_03]
76 439.137451 -0.001907 0.000954 -179.996613 77.167122 -179.993088 439.137451
77 439.137451 -0.001907 0.000954 -179.996460 77.570076 -179.992935 439.137451
78 439.137451 -0.001907 0.000954 -179.996277 77.972939 -179.992752 439.137451
[planeLockWeightLeft]
76 1000.000488 0.000000 -0.000296 -0.011826 -0.004376 0.005620 1000.000488
77 1000.000610 0.000000 -0.000307 -0.011826 -0.004376 0.005620 1000.000610
78 1000.000610 0.000000 -0.000319 -0.011826 -0.004376 0.005620 1000.000610
[R_Leg01]
76 761.455627 -0.001907 -0.000358 122.900993 -6.918041 35.659161 761.455688
77 761.455627 -0.001907 -0.000358 122.144630 -7.236829 35.671806 761.455688
78 761.455627 -0.001907 -0.000358 121.387642 -7.555439 35.688694 761.455688
[R_Leg02]
76 1441.140625 0.000000 -0.000238 -1.405985 -0.236643 -116.569283 1441.140625
77 1441.140625 0.000000 -0.000238 -1.389817 -0.228195 -117.114876 1441.140625
78 1441.140625 0.000000 -0.000238 -1.373730 -0.219594 -117.660477 1441.140625
[R_Leg03]
76 1686.963989 0.000954 0.001431 0.081855 -0.046850 132.512436 1686.963989
77 1686.963989 0.000954 0.001431 0.081315 -0.045118 132.198471 1686.963989
78 1686.963989 0.000954 0.001431 0.080767 -0.043390 131.884521 1686.963989
[R_Foot]
76 3041.560059 -30.531288 -11.204481 -0.483623 -22.129307 54.266190 3041.734131
77 3041.560059 -30.531288 -11.204481 -0.570502 -23.038822 54.589081 3041.734131
78 3041.560059 -30.531288 -11.204481 -0.557330 -23.549543 54.820881 3041.734131
[planeAlignerRight]
76 -127.145302 -574.023926 -312.901855 -36.580406 -71.378616 -64.320488 666.015747
77 -127.145988 -574.022827 -312.902008 -36.579777 -71.370720 -64.325165 666.014954
78 -127.146675 -574.021729 -312.902191 -36.579113 -71.362785 -64.329895 666.014282
[R_Toe1_01]
76 -188.383347 -224.864899 21.052242 76.425575 -0.448220 -172.720901 294.101532
77 -188.383347 -224.864899 21.052242 76.493164 -0.441498 -172.722488 294.101532
78 -188.383347 -224.864899 21.052242 76.560760 -0.434775 -172.724045 294.101532
[R_Toe2_01]
76 200.637817 -220.002121 -148.787384 -92.169678 32.734173 -59.177887 332.857574
77 200.637817 -220.002121 -148.787384 -92.084442 32.762100 -59.178837 332.857574
78 200.637817 -220.002121 -148.787384 -91.999199 32.790043 -59.179752 332.857574
[R_Toe3_01]
76 188.606735 -220.092957 191.126343 -72.787605 -8.310534 -73.711357 347.192566
77 188.606735 -220.092957 191.126343 -72.875282 -8.339768 -73.720398 347.192566
78 188.606735 -220.092957 191.126343 -72.962959 -8.369025 -73.729416 347.192566
[planeLockWeightRight]
76 999.999695 0.000333 -0.000576 -0.011823 -0.004379 -0.000027 999.999695
77 999.999695 0.000327 -0.000585 -0.011823 -0.004379 -0.000027 999.999695
78 999.999695 0.000322 -0.000593 -0.011823 -0.004379 -0.000027 999.999695
[R_Toe1_02]
76 413.762085 0.000477 -0.000119 0.001394 -24.662292 0.001394 413.762085
77 413.762085 0.000477 -0.000119 0.001394 -24.661730 0.001394 413.762085
78 413.762085 0.000477 -0.000119 0.001394 -24.661167 0.001394 413.762085
[R_Toe1_03]
76 464.317810 0.000000 0.001088 0.006620 69.578316 0.006620 464.317810
77 464.317810 0.000000 0.001088 0.006621 69.581329 0.006621 464.317810
78 464.317810 0.000000 0.001088 0.006622 69.584343 0.006622 464.317810
[R_Toe2_02]
76 342.234741 -0.000954 0.000238 0.001197 -67.219398 0.001197 342.234741
77 342.234741 -0.000954 0.000238 0.001197 -67.219788 0.001197 342.234741
78 342.234741 -0.000954 0.000238 0.001197 -67.220131 0.001197 342.234741
[R_Toe2_03]
76 420.210846 0.000715 -0.000268 0.008233 73.608643 0.008233 420.210846
77 420.210846 0.000715 -0.000268 0.008233 73.609329 0.008233 420.210846
78 420.210846 0.000715 -0.000268 0.008233 73.610023 0.008233 420.210846
[R_Toe3_02]
76 329.270355 -0.000477 -0.000954 0.001184 -74.494476 0.001184 329.270355
77 329.270355 -0.000477 -0.000954 0.001184 -74.499290 0.001184 329.270355
78 329.270355 -0.000477 -0.000954 0.001184 -74.504128 0.001184 329.270355
[R_Toe3_03]
76 439.137939 0.000238 0.001431 -0.011504 83.243408 -0.008002 439.137939
77 439.137939 0.000238 0.001431 -0.011521 83.254707 -0.008018 439.137939
78 439.137939 0.000238 0.001431 -0.011537 83.266212 -0.008035 439.137939
[Rear_Leg02]
76 1162.777710 -0.029802 0.005960 0.329512 -2.833028 -115.524452 1162.777710
77 1162.777710 -0.029802 0.005960 0.419362 -2.893719 -118.159805 1162.777710
78 1162.777710 -0.029802 0.005960 0.506829 -2.909102 -120.363724 1162.777710
[Rear_Leg03]
76 607.192505 -0.013351 -0.073195 0.006515 -0.001985 62.103893 607.192505
77 607.192505 -0.013351 -0.073195 0.006504 -0.002021 62.740047 607.192505
78 607.192505 -0.013351 -0.073195 0.006492 -0.002057 63.376179 607.192505
[Rear_Leg04]
76 995.874512 -0.020504 -0.011921 -0.039978 -0.016569 54.248024 995.874573
77 995.874512 -0.020504 -0.011921 -0.040150 -0.016135 55.485191 995.874573
78 995.874512 -0.020504 -0.011921 -0.040313 -0.015697 56.721939 995.874573
[Rear_Foot]
76 3096.176270 -0.067472 -0.041425 -144.029922 86.023003 49.622387 3096.176270
77 3096.176270 -0.067472 -0.041425 -143.979309 85.956253 49.461403 3096.176270
78 3096.176270 -0.067472 -0.041425 -143.926880 85.889534 49.302155 3096.176270
[planeAlignerCenter]
76 -3.887137 -93.772949 -709.099670 11.741155 -0.001481 179.998184 715.283752
77 -2.524750 -72.464348 -728.839905 11.972196 -0.001478 179.998184 732.437744
78 -1.162362 -51.155762 -748.580261 12.039347 -0.001477 179.998184 750.327026
[Rear_Toe1_01]
76 0.653352 83.966492 -371.173737 0.477219 34.702114 90.729614 380.553192
77 0.653352 83.966492 -371.173737 0.429322 36.806396 90.643875 380.553192
78 0.653352 83.966492 -371.173737 0.376011 38.909897 90.553421 380.553192
[Rear_Toe2_01]
76 178.200760 -294.826019 -362.060547 -7.584657 29.621506 -68.276985 499.765686
77 178.200760 -294.826019 -362.060547 -7.539672 31.053326 -67.790779 499.765686
78 178.200760 -294.826019 -362.060547 -7.479591 32.484505 -67.295731 499.765686
[Rear_Toe3_01]
76 -153.359680 -308.780914 -362.060852 3.537431 28.136366 -111.217361 499.952881
77 -153.359680 -308.780914 -362.060852 3.530242 29.896456 -111.488182 499.952881
78 -153.359680 -308.780914 -362.060852 3.463481 31.198921 -111.836235 499.952881
[planeLockWeightCenter]
76 1000.000244 0.000610 -0.000083 -0.011814 -0.004373 -0.000015 1000.000244
77 1000.000244 0.000610 -0.000079 -0.011814 -0.004373 -0.000015 1000.000244
78 1000.000244 0.000610 -0.000076 -0.011814 -0.004373 -0.000015 1000.000244
[Rear_Toe1_02]
76 379.707825 0.194073 0.000477 -0.004350 -33.562763 0.003045 379.707855
77 379.707825 0.194073 0.000477 -0.001505 -33.431122 0.002185 379.707855
78 379.707825 0.194073 0.000477 0.001333 -33.299438 0.001334 379.707855
[Rear_Toe1_03]
76 500.129700 0.165701 0.000119 0.010498 77.162544 0.010498 500.129761
77 500.129700 0.165701 0.000119 0.000905 70.739365 0.002681 500.129761
78 500.129700 0.165701 0.000119 -0.004379 64.316086 -0.000792 500.129761
[Rear_Toe2_02]
76 340.494507 0.000238 -0.000954 0.001213 -60.763195 0.001213 340.494507
77 340.494507 0.000238 -0.000954 0.001205 -63.658627 0.001205 340.494507
78 340.494507 0.000238 -0.000954 0.001199 -66.155487 0.001199 340.494507
[Rear_Toe2_03]
76 433.103577 0.000000 0.000238 0.004148 57.095657 0.004148 433.103546
77 433.103577 0.000000 0.000238 0.004650 60.730827 0.004650 433.103546
78 433.103577 0.000000 0.000238 0.005290 64.362381 0.005290 433.103546
[Rear_Toe3_02]
76 340.494141 -0.000358 -0.000477 -0.002430 -56.000053 -0.002430 340.494171
77 340.494141 -0.000358 -0.000477 -0.002407 -59.655548 -0.002407 340.494171
78 340.494141 -0.000358 -0.000477 0.006829 -62.746983 -0.008012 340.494171
[Rear_Toe3_03]
76 433.103577 0.001431 -0.000238 0.000118 51.310276 -0.003591 433.103546
77 433.103577 0.001431 -0.000238 -0.000117 55.662182 -0.003777 433.103546
78 433.103577 0.001431 -0.000238 -0.000386 59.682159 -0.004009 433.103546
[Back_Bone]
76 1312.175781 -701.934692 0.000954 1.301634 -0.527025 -85.763672 1488.125488
77 1312.175781 -701.934692 0.000954 1.343395 -0.399971 -85.725159 1488.125488
78 1312.175781 -701.934692 0.000954 1.385239 -0.272946 -85.686546 1488.125488
[Head]
76 1406.159424 809.709290 0.001431 -0.832136 -1.227806 7.312181 1622.625488
77 1406.159424 809.709290 0.001431 -0.555832 -1.312208 7.465156 1622.625488
78 1406.159424 809.709290 0.001431 -0.279752 -1.397344 7.617719 1622.625488
[Motor_Bone]
76 1158.364380 -417.834747 0.000477 -1.032262 -0.905211 -106.889610 1231.419434
77 1158.364380 -417.834747 0.000477 -2.189445 -0.665754 -106.652359 1231.419434
78 1158.364380 -417.834747 0.000477 -1.666450 -0.414009 -106.405983 1231.419434
[Ping_Mechanism]
76 1241.646851 -444.832001 3.382132 0.000103 -0.000053 82.120995 1318.929077
77 1238.866333 -443.777100 2.047125 0.000103 -0.000053 82.120995 1315.952881
78 1236.085938 -442.722229 0.712117 0.000103 -0.000053 82.120995 1312.978149
[BN_LookIK]
76 193.241119 1380.371704 -0.002861 0.000000 89.965736 -31.038179 1393.832153
77 193.241119 1380.371704 -0.002861 0.000000 89.965736 -31.038179 1393.832153
78 193.241119 1380.371704 -0.002861 0.000000 89.965736 -31.038179 1393.832153
[bottomMouth]
76 -435.092926 615.759399 -0.000954 -0.000022 0.000016 73.527184 753.966492
77 -435.092926 615.759399 -0.000954 -0.000022 0.000016 73.527184 753.966492
78 -435.092926 615.759399 -0.000954 -0.000022 0.000016 73.527184 753.966492
[L_Mouth01]
76 554.440979 7.658243 838.222046 150.204178 23.759130 109.605339 1005.027161
77 554.440979 7.658243 838.222046 150.204178 23.759130 109.605339 1005.027161
78 554.440979 7.658243 838.222046 150.204178 23.759130 109.605339 1005.027161
[L_mouthFront]
76 551.629089 934.514771 339.150421 0.000081 2.804060 79.119301 1136.941284
77 551.629089 934.514771 339.150421 0.000081 2.804060 79.119301 1136.941284
78 551.629089 934.514771 339.150421 0.000081 2.804060 79.119301 1136.941284
[mouthGun]
76 55.332661 1627.420898 0.000000 0.000023 0.000009 -11.038128 1628.361328
77 55.332661 1627.420898 0.000000 0.000023 0.000009 -11.038128 1628.361328
78 55.332661 1627.420898 0.000000 0.000023 0.000009 -11.038128 1628.361328
[R_Mouth01]
76 554.442383 7.659197 -838.223938 29.795891 -23.759109 109.605331 1005.029541
77 554.442383 7.659197 -838.223938 29.795891 -23.759109 109.605331 1005.029541
78 554.442383 7.659197 -838.223938 29.795891 -23.759109 109.605331 1005.029541
[R_mouthFront]
76 551.629089 934.514282 -339.151367 0.000029 -2.803930 79.119133 1136.941162
77 551.629089 934.514282 -339.151367 0.000029 -2.803930 79.119133 1136.941162
78 551.629089 934.514282 -339.151367 0.000029 -2.803930 79.119133 1136.941162
[TopMouth]
76 461.269867 -56.106091 -0.008583 -0.000059 -0.000268 92.025169 464.669525
77 461.269867 -56.106091 -0.008583 -0.000059 -0.000268 92.025169 464.669525
78 461.269867 -56.106091 -0.008583 -0.000059 -0.000268 92.025169 464.669525
[weapon_bone]
76 -987.239868 1448.372803 0.001431 0.000000 89.965736 -31.038221 1752.833740
77 -987.239868 1448.372803 0.001431 0.000000 89.965736 -31.038221 1752.833740
78 -987.239868 1448.372803 0.001431 0.000000 89.965736 -31.038221 1752.833740
